<svg width="24" height="25" viewBox="0 0 24 25" fill="none" xmlns="http://www.w3.org/2000/svg">
<g clip-path="url(#clip0_36_1578)">
<path d="M14.7267 13.5408C15.2083 13.695 15.625 13.8875 16.0125 14.1241L15.9867 14.1091C16.4275 14.305 16.8083 14.5341 17.1558 14.8033L17.1433 14.7941C17.16 14.845 17.17 14.9025 17.17 14.9633C17.17 14.9725 17.17 14.9808 17.1692 14.99V14.9891C17.1567 15.3466 17.0775 15.6825 16.9433 15.9883L16.95 15.9708C16.7575 16.3566 16.4367 16.6541 16.0442 16.8125L16.0325 16.8166C15.65 17.0191 15.1983 17.1441 14.7192 17.1591H14.7142C13.7975 17.0375 12.9692 16.7558 12.2242 16.3408L12.26 16.3591C11.4083 15.9691 10.6808 15.4566 10.0633 14.835L10.0625 14.8341C9.37583 14.12 8.74667 13.3383 8.18917 12.5058L8.15 12.4441C7.62 11.7533 7.2825 10.8891 7.23333 9.9483L7.2325 9.93747V9.83414C7.25917 9.02164 7.6225 8.2983 8.18583 7.79497L8.18833 7.79247C8.36083 7.6208 8.5975 7.5133 8.85917 7.5083H8.86C8.94417 7.5108 9.025 7.51747 9.10333 7.52914L9.0925 7.52747C9.165 7.5383 9.24917 7.54497 9.33583 7.54664H9.33833C9.35417 7.54497 9.37167 7.54414 9.39 7.54414C9.49833 7.54414 9.59917 7.57664 9.68333 7.63164L9.68167 7.6308C9.77083 7.72914 9.83917 7.8483 9.88 7.97914L9.88167 7.9858C9.95056 8.15803 10.0928 8.53691 10.3083 9.12247C10.4208 9.38414 10.5308 9.70664 10.6192 10.0383L10.6308 10.0908C10.5675 10.3916 10.4075 10.6475 10.1867 10.8316L10.1842 10.8333C9.88694 11.1477 9.73833 11.3477 9.73833 11.4333C9.74167 11.5066 9.76667 11.5733 9.80583 11.6283L9.805 11.6275C10.1425 12.3183 10.585 12.905 11.1183 13.3933L11.1225 13.3975C11.685 13.905 12.3275 14.3408 13.0242 14.6808L13.0733 14.7025C13.1542 14.755 13.2508 14.7883 13.3558 14.7933H13.3575C13.4869 14.7933 13.7197 14.5844 14.0558 14.1666C14.3919 13.7489 14.6153 13.54 14.7258 13.54L14.7267 13.5408ZM12.1042 20.3875H12.1225C13.2533 20.3875 14.3283 20.15 15.3008 19.7216L15.25 19.7416C17.2133 18.9133 18.7442 17.3825 19.5525 15.4716L19.5725 15.4191C19.9808 14.4916 20.2183 13.41 20.2183 12.2733C20.2183 11.1366 19.9808 10.055 19.5525 9.0758L19.5725 9.12747C18.7442 7.16414 17.2133 5.6333 15.3025 4.82497L15.25 4.80497C14.3225 4.39664 13.2408 4.15914 12.1042 4.15914C10.9675 4.15914 9.88583 4.39664 8.90667 4.82497L8.95833 4.80497C6.995 5.6333 5.46417 7.16414 4.65583 9.07497L4.63583 9.12747C4.2275 10.0583 3.99 11.1433 3.99 12.2833C3.99 14.0675 4.57167 15.7166 5.55583 17.05L5.54 17.0283L4.51917 20.0391L7.64583 19.0441C8.8875 19.8858 10.4183 20.3875 12.0667 20.3875H12.1058H12.1042ZM12.1042 2.53247H12.1317C13.4883 2.53247 14.7783 2.81747 15.9442 3.33164L15.8833 3.30747C18.2375 4.30497 20.0733 6.1408 21.0467 8.43164L21.0708 8.49497C21.5608 9.60914 21.8458 10.9083 21.8458 12.2741C21.8458 13.64 21.5608 14.9391 21.0467 16.115L21.0708 16.0533C20.0733 18.4075 18.2375 20.2433 15.9467 21.2166L15.8833 21.2408C14.7775 21.7308 13.4875 22.0158 12.1308 22.0158C12.1217 22.0158 12.1117 22.0158 12.1025 22.0158H12.1042C12.0908 22.0158 12.0758 22.0158 12.06 22.0158C10.3442 22.0158 8.73333 21.565 7.34 20.7758L7.3875 20.8008L2 22.5325L3.7575 17.3C2.88167 15.8716 2.3625 14.1425 2.3625 12.2916C2.3625 10.92 2.6475 9.61497 3.16167 8.43247L3.1375 8.49497C4.135 6.1408 5.97083 4.30497 8.26167 3.33164L8.325 3.30747C9.43083 2.81747 10.7208 2.53247 12.0775 2.53247H12.105L12.1042 2.53247Z" fill="white"/>
</g>
<defs>
<clipPath id="clip0_36_1578">
<rect width="20" height="20" fill="white" transform="translate(2 2.53247)"/>
</clipPath>
</defs>
</svg>
